<?xml version="1.0" encoding="UTF-8" standalone="no" ?>
<!DOCTYPE svg PUBLIC "-//W3C//DTD SVG 1.1//EN" "http://www.w3.org/Graphics/SVG/1.1/DTD/svg11.dtd">
<svg xmlns="http://www.w3.org/2000/svg" xmlns:xlink="http://www.w3.org/1999/xlink" version="1.1" width="1080" height="1080" viewBox="0 0 1080 1080" xml:space="preserve">
<desc>Created with Fabric.js 5.2.4</desc>
<defs>
</defs>
<g transform="matrix(1 0 0 1 540 540)" id="2cef1c12-406b-4a57-a236-2e7c5af2d18f"  >
</g>
<g transform="matrix(1 0 0 1 540 540)" id="a2f5c541-1e49-4831-9c9f-7ea42ccab6ef"  >
<rect style="stroke: none; stroke-width: 1; stroke-dasharray: none; stroke-linecap: butt; stroke-dashoffset: 0; stroke-linejoin: miter; stroke-miterlimit: 4; fill: rgb(255,255,255); fill-rule: nonzero; opacity: 1; visibility: hidden;" vector-effect="non-scaling-stroke"  x="-540" y="-540" rx="0" ry="0" width="1080" height="1080" />
</g>
<g transform="matrix(1 0 0 1 500.96 555.6)"  >
<path style="stroke: none; stroke-width: 1; stroke-dasharray: none; stroke-linecap: butt; stroke-dashoffset: 0; stroke-linejoin: miter; stroke-miterlimit: 4; fill: rgb(251,99,84); fill-rule: evenodd; opacity: 1;" vector-effect="non-scaling-stroke"  transform=" translate(-160.96, -161.87)" d="M 90.207 64.256 C 88.019 64.783 87.2 66.094 87.2 69.07 C 87.2 72.475 87.006 72.414 99.067 72.797 C 109.055 73.113 113.809 73.761 114.514 74.902 C 114.733 75.256 75.666 231.713 74.697 234.365 C 70.764 245.123 62.791 249.888 47.016 250.907 C 41.882 251.238 40.789 251.994 40.378 255.494 C 39.857 259.927 40.544 260.081 57.467 259.332 C 68.849 258.829 76.43 258.835 88.779 259.357 C 106.103 260.09 106.781 259.928 107.137 254.955 C 107.368 251.716 106.702 251.298 100.719 250.934 C 88.101 250.165 83.037 246.787 82.729 238.933 L 82.619 236.133 L 101.855 159.2 C 124.104 70.214 121.566 80.214 121.857 80.394 C 122.384 80.72 125.835 88.796 160.04 169.733 C 198.561 260.886 197.175 257.657 198.257 258.727 C 199.454 259.909 202.597 260.095 203.75 259.052 C 204.564 258.315 204.347 259.154 225.735 174 C 236.824 129.853 246.201 92.713 246.574 91.467 C 250.26 79.138 257.992 73.984 274.568 72.806 C 277.428 72.603 278.771 72.393 279.447 72.042 C 281.604 70.923 282.413 66.785 280.823 65.004 L 280.045 64.133 L 276.745 64.046 C 274.929 63.998 269.009 64.148 263.589 64.38 C 251.515 64.896 246.427 64.899 234.933 64.4 C 215.683 63.563 214.976 63.727 214.846 69.062 C 214.776 71.91 215.261 72.285 219.383 72.573 C 235.372 73.691 240.436 77.48 239.232 87.42 C 238.977 89.522 207.326 216.485 206.513 218.667 C 206.295 219.252 208.413 224.188 174.003 142.904 C 141.104 65.19 141.279 65.59 139.73 64.68 C 138.753 64.106 92.475 63.71 90.207 64.256" stroke-linecap="round" />
</g>
<g transform="matrix(1 0 0 1 540 540)"  >
<path style="stroke: none; stroke-width: 1; stroke-dasharray: none; stroke-linecap: butt; stroke-dashoffset: 0; stroke-linejoin: miter; stroke-miterlimit: 4; fill: rgb(4,4,4); fill-opacity: 0; fill-rule: evenodd; opacity: 1;" vector-effect="non-scaling-stroke"  transform=" translate(-200, -146.27)" d="M 0 146.267 L 0 292.533 L 200 292.533 L 400 292.533 L 400 146.267 L 400 0 L 200 0 L 0 0 L 0 146.267 M 354.933 15.053 C 374.185 18.085 384.642 27.377 384.659 41.467 C 384.67 50.64 381.209 56.236 371.404 62.892 C 360.631 70.205 354.211 77.067 349.763 86.023 C 346.366 92.865 345.571 96.681 345.352 107.2 C 345.152 116.835 345.051 117.064 341.154 116.741 C 338.439 116.515 338.532 116.87 338.544 106.725 C 338.568 86.176 344.21 72.912 359.215 58.133 C 365.311 52.129 366.267 49.707 366.267 40.267 C 366.267 33.976 366.056 32.656 364.534 29.39 C 358.398 16.228 326.395 16.944 315.693 30.483 L 314.624 31.835 L 316.445 32.27 C 328.41 35.126 325.057 53.108 312.968 50.915 C 300.819 48.712 302.808 30.394 316.175 21.387 C 325.05 15.406 340.818 12.83 354.933 15.053 M 137.941 63.989 C 141.326 64.543 137.615 56.457 174.692 144.077 C 196.562 195.762 206.322 218.541 206.455 218.21 C 206.986 216.893 238.669 90.216 238.947 88.299 C 240.451 77.936 234.023 72.811 219.505 72.799 C 215.575 72.795 214.547 71.929 214.726 68.773 C 215.019 63.607 216.102 63.372 235.558 64.254 C 244.369 64.653 253.387 64.609 266.558 64.101 C 280.909 63.548 281.491 63.652 281.795 66.818 C 282.218 71.218 280.528 72.563 273.952 73.056 C 258.742 74.196 251.165 78.907 247.344 89.6 C 246.753 91.253 235.026 137.643 209.222 240.4 C 204.222 260.311 204.53 259.473 202.064 259.843 C 199.578 260.216 198.039 259.3 196.726 256.667 C 196.36 255.933 179.958 217.233 160.277 170.667 C 126.104 89.81 121.925 80.058 121.712 80.667 C 120.135 85.158 82.863 236.309 82.849 238.267 C 82.792 246.421 88.107 250.08 101.067 250.808 C 107.292 251.158 108.938 253.147 106.674 257.585 C 105.303 260.273 106.831 260.181 79.841 259.195 C 75.086 259.022 70.208 259.022 65.574 259.194 C 40.997 260.112 42.311 260.14 41 258.677 C 39.801 257.339 40.04 253.859 41.437 252.308 C 42.373 251.268 43.207 251.003 46.133 250.817 C 62.249 249.79 70.181 245.388 74.145 235.267 C 75.064 232.921 114.396 76.592 114.399 75.274 C 114.402 73.93 108.754 73.147 96.8 72.834 C 87.089 72.579 86.679 72.396 86.996 68.446 C 87.223 65.617 88.242 64.422 90.8 63.983 C 92.471 63.696 136.188 63.702 137.941 63.989 M 344.054 132.831 C 353.851 134.891 356.599 147.403 348.595 153.507 C 343.057 157.731 334.355 155.562 331.349 149.208 C 327.271 140.588 334.798 130.884 344.054 132.831" stroke-linecap="round" />
</g>
<g transform="matrix(1 0 0 1 684.98 478.68)"  >
<path style="stroke: none; stroke-width: 1; stroke-dasharray: none; stroke-linecap: butt; stroke-dashoffset: 0; stroke-linejoin: miter; stroke-miterlimit: 4; fill: rgb(91,194,218); fill-rule: evenodd; opacity: 1;" vector-effect="non-scaling-stroke"  transform=" translate(-344.98, -84.95)" d="M 335.2 14.793 C 319.455 16.85 308.463 24.68 305.596 35.881 C 303.304 44.833 307.462 51.339 315.177 50.875 C 326.214 50.211 327.103 34.377 316.225 32.237 C 314.239 31.847 314.233 31.873 317 29.103 C 322.926 23.173 330.288 20.398 340.933 20.081 C 360.119 19.511 368.129 26.88 366.439 43.545 C 365.773 50.119 364.462 52.909 359.901 57.467 C 351.313 66.047 347.314 71.579 343.703 79.873 C 339.691 89.086 338.388 96.051 338.416 108.133 C 338.435 116.476 338.856 117.304 342.732 116.633 C 345.181 116.21 345.171 116.245 345.375 106.714 C 345.791 87.283 352.882 75.381 371.623 62.657 C 385.695 53.104 388.956 39.395 379.987 27.493 C 372.679 17.793 353.613 12.387 335.2 14.793 M 339.733 132.824 C 333.727 133.836 329.463 139.801 330.416 145.862 C 331.884 155.201 343.265 158.958 349.869 152.285 C 357.776 144.294 350.83 130.957 339.733 132.824" stroke-linecap="round" />
</g>
<g transform="matrix(1 0 0 1 506.54 555.62)"  >
<path style="stroke: none; stroke-width: 1; stroke-dasharray: none; stroke-linecap: butt; stroke-dashoffset: 0; stroke-linejoin: miter; stroke-miterlimit: 4; fill: rgb(181,70,61); fill-rule: evenodd; opacity: 1;" vector-effect="non-scaling-stroke"  transform=" translate(-166.54, -161.88)" d="M 228.736 64.189 C 229.068 64.252 229.548 64.25 229.803 64.183 C 230.058 64.116 229.787 64.064 229.2 64.067 C 228.613 64.07 228.405 64.125 228.736 64.189 M 268.203 64.189 C 268.535 64.252 269.015 64.25 269.27 64.183 C 269.525 64.116 269.253 64.064 268.667 64.067 C 268.08 64.07 267.871 64.125 268.203 64.189 M 235.403 64.455 C 235.735 64.519 236.215 64.517 236.47 64.45 C 236.725 64.383 236.453 64.331 235.867 64.334 C 235.28 64.337 235.071 64.391 235.403 64.455 M 261.533 64.455 C 261.863 64.518 262.403 64.518 262.733 64.455 C 263.063 64.391 262.793 64.339 262.133 64.339 C 261.473 64.339 261.203 64.391 261.533 64.455 M 242.2 64.724 C 242.603 64.785 243.263 64.785 243.667 64.724 C 244.07 64.663 243.74 64.613 242.933 64.613 C 242.127 64.613 241.797 64.663 242.2 64.724 M 254.467 64.724 C 254.87 64.785 255.53 64.785 255.933 64.724 C 256.337 64.663 256.007 64.613 255.2 64.613 C 254.393 64.613 254.063 64.663 254.467 64.724 M 281.667 67.333 C 281.67 67.92 281.725 68.129 281.789 67.797 C 281.852 67.465 281.85 66.985 281.783 66.73 C 281.716 66.475 281.664 66.747 281.667 67.333 M 87.006 69.333 C 87.006 69.993 87.058 70.263 87.122 69.933 C 87.185 69.603 87.185 69.063 87.122 68.733 C 87.058 68.403 87.006 68.673 87.006 69.333 M 92.2 72.729 C 92.823 72.785 93.843 72.785 94.467 72.729 C 95.09 72.672 94.58 72.627 93.333 72.627 C 92.087 72.627 91.577 72.672 92.2 72.729 M 218.333 72.722 C 218.663 72.785 219.203 72.785 219.533 72.722 C 219.863 72.658 219.593 72.606 218.933 72.606 C 218.273 72.606 218.003 72.658 218.333 72.722 M 103.267 72.984 C 103.523 73.051 103.943 73.051 104.2 72.984 C 104.457 72.917 104.247 72.862 103.733 72.862 C 103.22 72.862 103.01 72.917 103.267 72.984 M 69.183 243.267 L 68.4 244.133 L 69.267 243.35 C 70.075 242.62 70.256 242.4 70.05 242.4 C 70.004 242.4 69.614 242.79 69.183 243.267 M 64.467 259.122 C 64.797 259.185 65.337 259.185 65.667 259.122 C 65.997 259.058 65.727 259.006 65.067 259.006 C 64.407 259.006 64.137 259.058 64.467 259.122 M 79.933 259.122 C 80.263 259.185 80.803 259.185 81.133 259.122 C 81.463 259.058 81.193 259.006 80.533 259.006 C 79.873 259.006 79.603 259.058 79.933 259.122 M 57.803 259.389 C 58.135 259.452 58.615 259.45 58.87 259.383 C 59.125 259.316 58.853 259.264 58.267 259.267 C 57.68 259.27 57.471 259.325 57.803 259.389 M 86.87 259.389 C 87.201 259.452 87.681 259.45 87.936 259.383 C 88.191 259.316 87.92 259.264 87.333 259.267 C 86.747 259.27 86.538 259.325 86.87 259.389 M 51.403 259.655 C 51.735 259.719 52.215 259.717 52.47 259.65 C 52.725 259.583 52.453 259.531 51.867 259.534 C 51.28 259.537 51.071 259.591 51.403 259.655 M 93.536 259.655 C 93.868 259.719 94.348 259.717 94.603 259.65 C 94.858 259.583 94.587 259.531 94 259.534 C 93.413 259.537 93.205 259.591 93.536 259.655" stroke-linecap="round" />
</g>
<g transform="matrix(1 0 0 1 551.34 543.2)"  >
<path style="stroke: none; stroke-width: 1; stroke-dasharray: none; stroke-linecap: butt; stroke-dashoffset: 0; stroke-linejoin: miter; stroke-miterlimit: 4; fill: rgb(99,38,34); fill-rule: evenodd; opacity: 1;" vector-effect="non-scaling-stroke"  transform=" translate(-211.33, -149.47)" d="M 366.495 40.4 C 366.494 41.72 366.539 42.294 366.595 41.675 C 366.651 41.056 366.651 39.976 366.596 39.275 C 366.541 38.574 366.495 39.08 366.495 40.4 M 377.717 57.933 L 376.933 58.8 L 377.8 58.017 C 378.608 57.287 378.789 57.067 378.583 57.067 C 378.537 57.067 378.147 57.457 377.717 57.933 M 103 63.933 C 109.27 63.973 119.53 63.973 125.8 63.933 C 132.07 63.893 126.94 63.861 114.4 63.861 C 101.86 63.861 96.73 63.893 103 63.933 M 220.078 63.931 C 221.074 63.983 222.634 63.982 223.544 63.93 C 224.455 63.879 223.64 63.836 221.733 63.837 C 219.827 63.837 219.082 63.88 220.078 63.931 M 274.333 63.931 C 275.25 63.983 276.75 63.983 277.667 63.931 C 278.583 63.879 277.833 63.836 276 63.836 C 274.167 63.836 273.417 63.879 274.333 63.931 M 230.737 64.191 C 231.142 64.253 231.742 64.251 232.07 64.188 C 232.398 64.124 232.067 64.074 231.333 64.076 C 230.6 64.078 230.332 64.13 230.737 64.191 M 266.067 64.188 C 266.397 64.252 266.937 64.252 267.267 64.188 C 267.597 64.125 267.327 64.073 266.667 64.073 C 266.007 64.073 265.737 64.125 266.067 64.188 M 237.404 64.458 C 237.809 64.519 238.409 64.518 238.737 64.454 C 239.065 64.391 238.733 64.341 238 64.343 C 237.267 64.345 236.998 64.397 237.404 64.458 M 259.4 64.455 C 259.73 64.518 260.27 64.518 260.6 64.455 C 260.93 64.391 260.66 64.339 260 64.339 C 259.34 64.339 259.07 64.391 259.4 64.455 M 246.6 64.732 C 247.957 64.78 250.177 64.78 251.533 64.732 C 252.89 64.684 251.78 64.644 249.067 64.644 C 246.353 64.644 245.243 64.684 246.6 64.732 M 101.536 72.989 C 101.868 73.052 102.348 73.05 102.603 72.983 C 102.858 72.916 102.587 72.864 102 72.867 C 101.413 72.87 101.205 72.925 101.536 72.989 M 46.467 250.85 C 46.723 250.918 47.143 250.918 47.4 250.85 C 47.657 250.783 47.447 250.729 46.933 250.729 C 46.42 250.729 46.21 250.783 46.467 250.85 M 99.533 250.85 C 99.79 250.918 100.21 250.918 100.467 250.85 C 100.723 250.783 100.513 250.729 100 250.729 C 99.487 250.729 99.277 250.783 99.533 250.85 M 66.861 259.126 C 67.334 259.185 68.174 259.186 68.727 259.128 C 69.281 259.07 68.893 259.022 67.867 259.021 C 66.84 259.02 66.387 259.067 66.861 259.126 M 76.6 259.128 C 77.15 259.185 78.05 259.185 78.6 259.128 C 79.15 259.07 78.7 259.023 77.6 259.023 C 76.5 259.023 76.05 259.07 76.6 259.128 M 59.804 259.391 C 60.209 259.453 60.809 259.451 61.137 259.388 C 61.465 259.324 61.133 259.274 60.4 259.276 C 59.667 259.278 59.398 259.33 59.804 259.391 M 84.604 259.391 C 85.009 259.453 85.609 259.451 85.937 259.388 C 86.265 259.324 85.933 259.274 85.2 259.276 C 84.467 259.278 84.198 259.33 84.604 259.391 M 53.267 259.655 C 53.597 259.718 54.137 259.718 54.467 259.655 C 54.797 259.591 54.527 259.539 53.867 259.539 C 53.207 259.539 52.937 259.591 53.267 259.655 M 91.27 259.658 C 91.676 259.719 92.276 259.718 92.604 259.654 C 92.932 259.591 92.6 259.541 91.867 259.543 C 91.133 259.545 90.865 259.597 91.27 259.658 M 44.194 259.926 C 44.667 259.985 45.507 259.986 46.061 259.928 C 46.614 259.87 46.227 259.822 45.2 259.821 C 44.173 259.82 43.721 259.867 44.194 259.926 M 100.207 259.929 C 100.834 259.985 101.794 259.984 102.34 259.927 C 102.887 259.87 102.373 259.824 101.2 259.825 C 100.027 259.826 99.58 259.873 100.207 259.929 M 200.6 259.917 C 200.857 259.984 201.277 259.984 201.533 259.917 C 201.79 259.85 201.58 259.795 201.067 259.795 C 200.553 259.795 200.343 259.85 200.6 259.917" stroke-linecap="round" />
</g>
</svg>