<svg id="svg" version="1.1" xmlns="http://www.w3.org/2000/svg" xmlns:xlink="http://www.w3.org/1999/xlink" width="400" height="292.53333333333336" viewBox="0, 0, 400,292.53333333333336"><g id="svgg"><path id="path0" d="M90.207 64.256 C 88.019 64.783,87.200 66.094,87.200 69.070 C 87.200 72.475,87.006 72.414,99.067 72.797 C 109.055 73.113,113.809 73.761,114.514 74.902 C 114.733 75.256,75.666 231.713,74.697 234.365 C 70.764 245.123,62.791 249.888,47.016 250.907 C 41.882 251.238,40.789 251.994,40.378 255.494 C 39.857 259.927,40.544 260.081,57.467 259.332 C 68.849 258.829,76.430 258.835,88.779 259.357 C 106.103 260.090,106.781 259.928,107.137 254.955 C 107.368 251.716,106.702 251.298,100.719 250.934 C 88.101 250.165,83.037 246.787,82.729 238.933 L 82.619 236.133 101.855 159.200 C 124.104 70.214,121.566 80.214,121.857 80.394 C 122.384 80.720,125.835 88.796,160.040 169.733 C 198.561 260.886,197.175 257.657,198.257 258.727 C 199.454 259.909,202.597 260.095,203.750 259.052 C 204.564 258.315,204.347 259.154,225.735 174.000 C 236.824 129.853,246.201 92.713,246.574 91.467 C 250.260 79.138,257.992 73.984,274.568 72.806 C 277.428 72.603,278.771 72.393,279.447 72.042 C 281.604 70.923,282.413 66.785,280.823 65.004 L 280.045 64.133 276.745 64.046 C 274.929 63.998,269.009 64.148,263.589 64.380 C 251.515 64.896,246.427 64.899,234.933 64.400 C 215.683 63.563,214.976 63.727,214.846 69.062 C 214.776 71.910,215.261 72.285,219.383 72.573 C 235.372 73.691,240.436 77.480,239.232 87.420 C 238.977 89.522,207.326 216.485,206.513 218.667 C 206.295 219.252,208.413 224.188,174.003 142.904 C 141.104 65.190,141.279 65.590,139.730 64.680 C 138.753 64.106,92.475 63.710,90.207 64.256 " stroke="none" fill="#fb6354" fill-rule="evenodd"></path><path id="path1" d="M0.000 146.267 L 0.000 292.533 200.000 292.533 L 400.000 292.533 400.000 146.267 L 400.000 0.000 200.000 0.000 L 0.000 0.000 0.000 146.267 M354.933 15.053 C 374.185 18.085,384.642 27.377,384.659 41.467 C 384.670 50.640,381.209 56.236,371.404 62.892 C 360.631 70.205,354.211 77.067,349.763 86.023 C 346.366 92.865,345.571 96.681,345.352 107.200 C 345.152 116.835,345.051 117.064,341.154 116.741 C 338.439 116.515,338.532 116.870,338.544 106.725 C 338.568 86.176,344.210 72.912,359.215 58.133 C 365.311 52.129,366.267 49.707,366.267 40.267 C 366.267 33.976,366.056 32.656,364.534 29.390 C 358.398 16.228,326.395 16.944,315.693 30.483 L 314.624 31.835 316.445 32.270 C 328.410 35.126,325.057 53.108,312.968 50.915 C 300.819 48.712,302.808 30.394,316.175 21.387 C 325.050 15.406,340.818 12.830,354.933 15.053 M137.941 63.989 C 141.326 64.543,137.615 56.457,174.692 144.077 C 196.562 195.762,206.322 218.541,206.455 218.210 C 206.986 216.893,238.669 90.216,238.947 88.299 C 240.451 77.936,234.023 72.811,219.505 72.799 C 215.575 72.795,214.547 71.929,214.726 68.773 C 215.019 63.607,216.102 63.372,235.558 64.254 C 244.369 64.653,253.387 64.609,266.558 64.101 C 280.909 63.548,281.491 63.652,281.795 66.818 C 282.218 71.218,280.528 72.563,273.952 73.056 C 258.742 74.196,251.165 78.907,247.344 89.600 C 246.753 91.253,235.026 137.643,209.222 240.400 C 204.222 260.311,204.530 259.473,202.064 259.843 C 199.578 260.216,198.039 259.300,196.726 256.667 C 196.360 255.933,179.958 217.233,160.277 170.667 C 126.104 89.810,121.925 80.058,121.712 80.667 C 120.135 85.158,82.863 236.309,82.849 238.267 C 82.792 246.421,88.107 250.080,101.067 250.808 C 107.292 251.158,108.938 253.147,106.674 257.585 C 105.303 260.273,106.831 260.181,79.841 259.195 C 75.086 259.022,70.208 259.022,65.574 259.194 C 40.997 260.112,42.311 260.140,41.000 258.677 C 39.801 257.339,40.040 253.859,41.437 252.308 C 42.373 251.268,43.207 251.003,46.133 250.817 C 62.249 249.790,70.181 245.388,74.145 235.267 C 75.064 232.921,114.396 76.592,114.399 75.274 C 114.402 73.930,108.754 73.147,96.800 72.834 C 87.089 72.579,86.679 72.396,86.996 68.446 C 87.223 65.617,88.242 64.422,90.800 63.983 C 92.471 63.696,136.188 63.702,137.941 63.989 M344.054 132.831 C 353.851 134.891,356.599 147.403,348.595 153.507 C 343.057 157.731,334.355 155.562,331.349 149.208 C 327.271 140.588,334.798 130.884,344.054 132.831 " stroke="none" fill="#040404" fill-rule="evenodd"></path><path id="path2" d="M335.200 14.793 C 319.455 16.850,308.463 24.680,305.596 35.881 C 303.304 44.833,307.462 51.339,315.177 50.875 C 326.214 50.211,327.103 34.377,316.225 32.237 C 314.239 31.847,314.233 31.873,317.000 29.103 C 322.926 23.173,330.288 20.398,340.933 20.081 C 360.119 19.511,368.129 26.880,366.439 43.545 C 365.773 50.119,364.462 52.909,359.901 57.467 C 351.313 66.047,347.314 71.579,343.703 79.873 C 339.691 89.086,338.388 96.051,338.416 108.133 C 338.435 116.476,338.856 117.304,342.732 116.633 C 345.181 116.210,345.171 116.245,345.375 106.714 C 345.791 87.283,352.882 75.381,371.623 62.657 C 385.695 53.104,388.956 39.395,379.987 27.493 C 372.679 17.793,353.613 12.387,335.200 14.793 M339.733 132.824 C 333.727 133.836,329.463 139.801,330.416 145.862 C 331.884 155.201,343.265 158.958,349.869 152.285 C 357.776 144.294,350.830 130.957,339.733 132.824 " stroke="none" fill="#5bc2da" fill-rule="evenodd"></path><path id="path3" d="M228.736 64.189 C 229.068 64.252,229.548 64.250,229.803 64.183 C 230.058 64.116,229.787 64.064,229.200 64.067 C 228.613 64.070,228.405 64.125,228.736 64.189 M268.203 64.189 C 268.535 64.252,269.015 64.250,269.270 64.183 C 269.525 64.116,269.253 64.064,268.667 64.067 C 268.080 64.070,267.871 64.125,268.203 64.189 M235.403 64.455 C 235.735 64.519,236.215 64.517,236.470 64.450 C 236.725 64.383,236.453 64.331,235.867 64.334 C 235.280 64.337,235.071 64.391,235.403 64.455 M261.533 64.455 C 261.863 64.518,262.403 64.518,262.733 64.455 C 263.063 64.391,262.793 64.339,262.133 64.339 C 261.473 64.339,261.203 64.391,261.533 64.455 M242.200 64.724 C 242.603 64.785,243.263 64.785,243.667 64.724 C 244.070 64.663,243.740 64.613,242.933 64.613 C 242.127 64.613,241.797 64.663,242.200 64.724 M254.467 64.724 C 254.870 64.785,255.530 64.785,255.933 64.724 C 256.337 64.663,256.007 64.613,255.200 64.613 C 254.393 64.613,254.063 64.663,254.467 64.724 M281.667 67.333 C 281.670 67.920,281.725 68.129,281.789 67.797 C 281.852 67.465,281.850 66.985,281.783 66.730 C 281.716 66.475,281.664 66.747,281.667 67.333 M87.006 69.333 C 87.006 69.993,87.058 70.263,87.122 69.933 C 87.185 69.603,87.185 69.063,87.122 68.733 C 87.058 68.403,87.006 68.673,87.006 69.333 M92.200 72.729 C 92.823 72.785,93.843 72.785,94.467 72.729 C 95.090 72.672,94.580 72.627,93.333 72.627 C 92.087 72.627,91.577 72.672,92.200 72.729 M218.333 72.722 C 218.663 72.785,219.203 72.785,219.533 72.722 C 219.863 72.658,219.593 72.606,218.933 72.606 C 218.273 72.606,218.003 72.658,218.333 72.722 M103.267 72.984 C 103.523 73.051,103.943 73.051,104.200 72.984 C 104.457 72.917,104.247 72.862,103.733 72.862 C 103.220 72.862,103.010 72.917,103.267 72.984 M69.183 243.267 L 68.400 244.133 69.267 243.350 C 70.075 242.620,70.256 242.400,70.050 242.400 C 70.004 242.400,69.614 242.790,69.183 243.267 M64.467 259.122 C 64.797 259.185,65.337 259.185,65.667 259.122 C 65.997 259.058,65.727 259.006,65.067 259.006 C 64.407 259.006,64.137 259.058,64.467 259.122 M79.933 259.122 C 80.263 259.185,80.803 259.185,81.133 259.122 C 81.463 259.058,81.193 259.006,80.533 259.006 C 79.873 259.006,79.603 259.058,79.933 259.122 M57.803 259.389 C 58.135 259.452,58.615 259.450,58.870 259.383 C 59.125 259.316,58.853 259.264,58.267 259.267 C 57.680 259.270,57.471 259.325,57.803 259.389 M86.870 259.389 C 87.201 259.452,87.681 259.450,87.936 259.383 C 88.191 259.316,87.920 259.264,87.333 259.267 C 86.747 259.270,86.538 259.325,86.870 259.389 M51.403 259.655 C 51.735 259.719,52.215 259.717,52.470 259.650 C 52.725 259.583,52.453 259.531,51.867 259.534 C 51.280 259.537,51.071 259.591,51.403 259.655 M93.536 259.655 C 93.868 259.719,94.348 259.717,94.603 259.650 C 94.858 259.583,94.587 259.531,94.000 259.534 C 93.413 259.537,93.205 259.591,93.536 259.655 " stroke="none" fill="#b5463d" fill-rule="evenodd"></path><path id="path4" d="M366.495 40.400 C 366.494 41.720,366.539 42.294,366.595 41.675 C 366.651 41.056,366.651 39.976,366.596 39.275 C 366.541 38.574,366.495 39.080,366.495 40.400 M377.717 57.933 L 376.933 58.800 377.800 58.017 C 378.608 57.287,378.789 57.067,378.583 57.067 C 378.537 57.067,378.147 57.457,377.717 57.933 M103.000 63.933 C 109.270 63.973,119.530 63.973,125.800 63.933 C 132.070 63.893,126.940 63.861,114.400 63.861 C 101.860 63.861,96.730 63.893,103.000 63.933 M220.078 63.931 C 221.074 63.983,222.634 63.982,223.544 63.930 C 224.455 63.879,223.640 63.836,221.733 63.837 C 219.827 63.837,219.082 63.880,220.078 63.931 M274.333 63.931 C 275.250 63.983,276.750 63.983,277.667 63.931 C 278.583 63.879,277.833 63.836,276.000 63.836 C 274.167 63.836,273.417 63.879,274.333 63.931 M230.737 64.191 C 231.142 64.253,231.742 64.251,232.070 64.188 C 232.398 64.124,232.067 64.074,231.333 64.076 C 230.600 64.078,230.332 64.130,230.737 64.191 M266.067 64.188 C 266.397 64.252,266.937 64.252,267.267 64.188 C 267.597 64.125,267.327 64.073,266.667 64.073 C 266.007 64.073,265.737 64.125,266.067 64.188 M237.404 64.458 C 237.809 64.519,238.409 64.518,238.737 64.454 C 239.065 64.391,238.733 64.341,238.000 64.343 C 237.267 64.345,236.998 64.397,237.404 64.458 M259.400 64.455 C 259.730 64.518,260.270 64.518,260.600 64.455 C 260.930 64.391,260.660 64.339,260.000 64.339 C 259.340 64.339,259.070 64.391,259.400 64.455 M246.600 64.732 C 247.957 64.780,250.177 64.780,251.533 64.732 C 252.890 64.684,251.780 64.644,249.067 64.644 C 246.353 64.644,245.243 64.684,246.600 64.732 M101.536 72.989 C 101.868 73.052,102.348 73.050,102.603 72.983 C 102.858 72.916,102.587 72.864,102.000 72.867 C 101.413 72.870,101.205 72.925,101.536 72.989 M46.467 250.850 C 46.723 250.918,47.143 250.918,47.400 250.850 C 47.657 250.783,47.447 250.729,46.933 250.729 C 46.420 250.729,46.210 250.783,46.467 250.850 M99.533 250.850 C 99.790 250.918,100.210 250.918,100.467 250.850 C 100.723 250.783,100.513 250.729,100.000 250.729 C 99.487 250.729,99.277 250.783,99.533 250.850 M66.861 259.126 C 67.334 259.185,68.174 259.186,68.727 259.128 C 69.281 259.070,68.893 259.022,67.867 259.021 C 66.840 259.020,66.387 259.067,66.861 259.126 M76.600 259.128 C 77.150 259.185,78.050 259.185,78.600 259.128 C 79.150 259.070,78.700 259.023,77.600 259.023 C 76.500 259.023,76.050 259.070,76.600 259.128 M59.804 259.391 C 60.209 259.453,60.809 259.451,61.137 259.388 C 61.465 259.324,61.133 259.274,60.400 259.276 C 59.667 259.278,59.398 259.330,59.804 259.391 M84.604 259.391 C 85.009 259.453,85.609 259.451,85.937 259.388 C 86.265 259.324,85.933 259.274,85.200 259.276 C 84.467 259.278,84.198 259.330,84.604 259.391 M53.267 259.655 C 53.597 259.718,54.137 259.718,54.467 259.655 C 54.797 259.591,54.527 259.539,53.867 259.539 C 53.207 259.539,52.937 259.591,53.267 259.655 M91.270 259.658 C 91.676 259.719,92.276 259.718,92.604 259.654 C 92.932 259.591,92.600 259.541,91.867 259.543 C 91.133 259.545,90.865 259.597,91.270 259.658 M44.194 259.926 C 44.667 259.985,45.507 259.986,46.061 259.928 C 46.614 259.870,46.227 259.822,45.200 259.821 C 44.173 259.820,43.721 259.867,44.194 259.926 M100.207 259.929 C 100.834 259.985,101.794 259.984,102.340 259.927 C 102.887 259.870,102.373 259.824,101.200 259.825 C 100.027 259.826,99.580 259.873,100.207 259.929 M200.600 259.917 C 200.857 259.984,201.277 259.984,201.533 259.917 C 201.790 259.850,201.580 259.795,201.067 259.795 C 200.553 259.795,200.343 259.850,200.600 259.917 " stroke="none" fill="#632622" fill-rule="evenodd"></path></g></svg>